<?xml version="1.0" encoding="UTF-8" standalone="no"?>
<!DOCTYPE svg PUBLIC "-//W3C//DTD SVG 1.1//EN" "http://www.w3.org/Graphics/SVG/1.1/DTD/svg11.dtd">
<svg width="100%" height="100%" viewBox="0 0 500 320" version="1.1" xmlns="http://www.w3.org/2000/svg" xmlns:xlink="http://www.w3.org/1999/xlink" xml:space="preserve" style="fill-rule:evenodd;clip-rule:evenodd;stroke-linejoin:round;stroke-miterlimit:1.41421;">
    <g id="Layer_1_1_">
        <g>
            <path d="M481.466,73.449C481.203,73.449 480.955,73.449 480.706,73.452C479.024,73.457 477.345,73.494 475.663,73.574C474.165,73.641 472.681,73.742 471.185,73.877C469.811,74.008 468.419,74.166 467.05,74.367C465.752,74.556 464.48,74.782 463.215,75.055C462.734,75.159 462.241,75.269 461.763,75.386C461.297,75.494 460.831,75.619 460.365,75.746C457.155,76.615 453.98,77.82 451.219,79.685C449.305,80.888 447.577,82.388 446.127,84.125C444.627,85.871 443.417,87.862 442.487,89.967C441.304,92.592 440.527,95.403 440.06,98.251C439.784,99.875 439.59,101.509 439.466,103.147C439.366,104.394 439.309,105.644 439.293,106.892C439.268,107.454 439.268,108.015 439.263,108.581L439.261,108.728C439.261,109.898 439.263,111.075 439.263,112.247C439.27,120.427 439.266,128.618 439.263,136.8C439.261,144.602 439.263,152.394 439.263,160.195L439.263,225.691C440.145,225.689 441.026,225.685 441.911,225.664C443.575,225.641 445.243,225.57 446.916,225.468C450.576,225.257 454.228,224.855 457.819,224.058C461.001,223.4 464.146,222.43 467.027,220.929C469.26,219.816 471.354,218.396 473.135,216.633C474.913,214.943 476.377,212.925 477.509,210.737C478.792,208.341 479.662,205.73 480.238,203.089C480.627,201.366 480.903,199.618 481.092,197.86C481.28,196.166 481.387,194.458 481.43,192.756C481.458,191.973 481.462,191.198 481.467,190.416L481.47,108.733L481.465,108.588L481.465,73.449L481.466,73.449Z" style="fill:white;fill-rule:nonzero;"/>
            <path d="M412.174,112.369C409.101,104.427 404.639,97.068 399.143,90.594C393.773,84.056 387.39,78.396 380.235,73.867C373.061,69.168 365.105,65.63 356.808,63.559C353.414,62.646 349.967,61.985 346.489,61.536C344.266,61.238 342.049,61.029 339.809,60.934C338.452,60.881 337.092,60.861 335.737,60.838C334.38,60.863 333.024,60.884 331.67,60.934C322.517,61.317 313.33,63.264 304.847,66.828C296.9,69.904 289.548,74.364 283.076,79.861C276.537,85.224 270.873,91.616 266.337,98.773C261.645,105.949 258.099,113.904 256.032,122.192C255.128,125.585 254.456,129.036 254.014,132.515C253.719,134.735 253.507,136.958 253.412,139.191C253.353,140.547 253.33,141.903 253.311,143.262L253.311,225.69C254.195,225.689 255.083,225.685 255.956,225.664C261.288,225.594 266.656,225.264 271.883,224.058C275.068,223.4 278.197,222.43 281.085,220.929C283.319,219.813 285.422,218.398 287.196,216.633C288.971,214.94 290.436,212.925 291.565,210.734C292.858,208.342 293.714,205.73 294.3,203.087C294.689,201.363 294.957,199.616 295.151,197.858C295.336,196.164 295.443,194.468 295.487,192.756C295.499,191.972 295.518,191.2 295.52,190.415L295.52,143.268C295.532,142.609 295.535,141.947 295.573,141.288C295.76,136.82 296.705,132.338 298.437,128.197C299.94,124.319 302.125,120.727 304.799,117.567C307.422,114.382 310.544,111.62 314.028,109.407C317.53,107.109 321.414,105.393 325.454,104.376C327.122,103.929 328.8,103.603 330.49,103.387C332.232,103.158 333.985,103.043 335.736,103.05C340.877,103.017 346.069,103.97 350.813,105.967C354.695,107.466 358.28,109.646 361.438,112.334C364.636,114.949 367.409,118.075 369.609,121.562C371.431,124.351 372.86,127.38 373.921,130.56C375.097,134.018 375.81,137.649 375.906,141.289C375.941,141.949 375.943,142.609 375.968,143.271L375.968,190.417C375.97,191.199 375.978,191.973 375.993,192.756C376.09,197.046 376.506,201.369 377.804,205.471C378.52,207.973 379.555,210.405 380.992,212.604C382.302,214.657 383.944,216.512 385.854,218.028C387.833,219.652 390.106,220.919 392.464,221.882C396.046,223.403 399.86,224.272 403.698,224.799C405.705,225.094 407.702,225.283 409.717,225.423C411.648,225.564 413.58,225.649 415.525,225.671C416.407,225.695 417.274,225.696 418.157,225.697L418.157,143.269C418.143,141.913 418.114,140.555 418.058,139.198C417.685,130.038 415.745,120.862 412.174,112.369" style="fill:white;fill-rule:nonzero;"/>
            <path d="M232.213,108.725C232.155,103.657 231.889,98.517 230.368,93.676C229.662,91.166 228.611,88.735 227.179,86.54C225.873,84.48 224.229,82.631 222.325,81.115C220.346,79.49 218.076,78.23 215.705,77.259C212.132,75.74 208.315,74.871 204.475,74.348C202.473,74.055 200.472,73.857 198.46,73.719C196.527,73.581 194.592,73.502 192.659,73.474C191.778,73.458 190.889,73.454 190.015,73.451L190.015,190.409C190.02,191.191 190.025,191.966 190.045,192.751C190.143,197.041 190.562,201.361 191.859,205.464C192.569,207.966 193.616,210.4 195.05,212.594C196.355,214.652 198.001,216.506 199.907,218.019C201.885,219.644 204.153,220.91 206.52,221.872C210.095,223.395 213.912,224.266 217.752,224.792C219.753,225.086 221.761,225.279 223.775,225.415C225.703,225.556 227.635,225.641 229.569,225.661C230.45,225.686 231.334,225.689 232.21,225.69L232.21,222.18L232.21,215.159L232.21,197.614C232.21,189.811 232.215,182.023 232.21,174.22C232.21,166.42 232.208,158.63 232.21,150.832C232.215,143.032 232.231,135.243 232.21,127.437C232.208,124.319 232.203,121.195 232.21,118.083C232.228,114.964 232.257,111.86 232.213,108.725" style="fill:white;fill-rule:nonzero;"/>
            <path d="M126.796,141.96C126.788,142.622 126.78,143.277 126.75,143.94C126.696,145.241 126.565,146.535 126.372,147.826C125.921,150.97 125.1,154.056 123.888,156.993C122.374,160.846 120.218,164.435 117.543,167.59C114.939,170.779 111.819,173.531 108.336,175.731C104.843,178.02 100.979,179.739 96.938,180.747C95.287,181.188 93.607,181.515 91.914,181.737C90.84,181.877 89.751,181.975 88.664,182.026C88.01,182.052 87.344,182.06 86.683,182.075C86.195,182.072 85.703,182.06 85.213,182.048C84.246,182.022 83.277,181.942 82.314,181.841C79.965,181.585 77.625,181.132 75.354,180.444C72.384,179.597 69.524,178.378 66.859,176.834C64.196,175.337 61.73,173.522 59.498,171.439C57.249,169.388 55.231,167.074 53.547,164.545C52.859,163.539 52.223,162.485 51.627,161.425C51.019,160.356 50.455,159.262 49.986,158.126C49.521,157.038 49.15,155.91 48.82,154.769C48.539,153.812 48.286,152.849 48.073,151.873C47.855,150.893 47.678,149.897 47.539,148.901C47.396,147.893 47.292,146.876 47.229,145.855C47.207,145.441 47.188,145.036 47.176,144.622C47.163,144.362 47.159,144.103 47.156,143.843C47.157,143.684 47.155,143.526 47.155,143.374C47.164,142.712 47.181,142.049 47.204,141.385C47.389,136.92 48.336,132.446 50.074,128.296C51.578,124.422 53.757,120.833 56.439,117.672C59.054,114.48 62.174,111.714 65.667,109.51C69.165,107.217 73.046,105.49 77.091,104.476C78.751,104.033 80.437,103.706 82.128,103.486C83.872,103.261 85.622,103.148 87.378,103.148C91.491,103.129 95.647,103.736 99.559,105.033C102.745,106.008 105.779,107.43 108.585,109.208C111.377,110.932 113.95,113.012 116.235,115.388C118.544,117.735 120.568,120.374 122.162,123.237C122.822,124.383 123.419,125.569 123.982,126.771C124.56,127.98 125.106,129.211 125.455,130.5C125.697,131.346 125.856,132.222 126.004,133.097C126.135,133.847 126.262,134.588 126.364,135.331C126.469,136.099 126.552,136.869 126.614,137.639C126.682,138.429 126.741,139.221 126.767,140.009C126.773,140.336 126.788,140.661 126.789,140.982C126.795,141.184 126.796,141.387 126.797,141.594L126.797,141.96L126.796,141.96ZM228.892,17.281C227.38,15.437 225.572,13.836 223.554,12.555C221.527,11.23 219.274,10.224 216.932,9.643C215.974,9.385 215.001,9.196 214.012,9.073C213.389,8.987 212.763,8.93 212.133,8.906C211.751,8.887 211.365,8.88 210.987,8.874C210.052,8.895 209.12,8.919 208.194,8.971C201.912,9.325 195.726,11.101 189.902,13.585C182.99,16.384 176.59,20.162 170.569,24.473C164.215,28.922 158.285,33.97 152.773,39.447C147.435,44.671 142.491,50.307 138.163,56.375C136.549,58.598 135.013,60.877 133.576,63.217C132.394,65.12 131.282,67.068 130.279,69.072C129.863,69.879 129.479,70.701 129.089,71.516C128.711,71.295 128.342,71.067 127.964,70.854C127.218,70.417 126.461,69.993 125.694,69.577C123.774,68.543 121.815,67.581 119.82,66.705C117.149,65.514 114.395,64.47 111.601,63.6C108.779,62.69 105.908,61.949 102.993,61.368C100.042,60.764 97.051,60.328 94.05,60.076C92.833,59.969 91.612,59.886 90.385,59.831C89.618,59.801 88.851,59.773 88.079,59.762C87.616,59.754 87.151,59.754 86.685,59.75C85.33,59.767 83.973,59.788 82.622,59.854C79.961,59.964 77.3,60.229 74.654,60.626C68.23,61.549 61.899,63.241 55.873,65.718C47.984,68.813 40.613,73.241 34.149,78.719C27.619,84.055 21.98,90.443 17.473,97.581C12.784,104.739 9.26,112.674 7.191,120.939C6.276,124.327 5.609,127.767 5.168,131.242C4.697,134.793 4.461,138.378 4.478,141.959C4.469,144.126 4.557,146.292 4.732,148.45C4.871,150.227 5.065,151.99 5.325,153.757C5.575,155.497 5.88,157.229 6.252,158.95C6.605,160.657 7.019,162.35 7.492,164.028C7.68,164.694 7.871,165.361 8.078,166.021C8.279,166.679 8.492,167.339 8.71,167.991C9.474,170.331 10.279,172.657 11.219,174.924C11.989,176.809 12.848,178.653 13.767,180.468C14.684,182.271 15.66,184.037 16.708,185.775C17.74,187.505 18.846,189.192 20.014,190.835C20.478,191.49 20.952,192.14 21.435,192.789C21.736,193.187 22.042,193.592 22.352,193.981C22.54,194.233 22.724,194.466 22.91,194.7C22.573,194.988 22.236,195.28 21.909,195.574C21.244,196.171 20.601,196.781 19.97,197.414C18.391,198.979 16.908,200.653 15.544,202.415C13.702,204.755 12.068,207.256 10.679,209.901C9.241,212.546 8.054,215.32 7.12,218.191C6.14,221.095 5.431,224.103 5.016,227.134C4.832,228.379 4.698,229.621 4.616,230.873C4.524,232.141 4.474,233.408 4.479,234.676C4.475,235.953 4.524,237.216 4.62,238.48C4.688,239.533 4.795,240.571 4.93,241.604C5.067,242.623 5.234,243.647 5.434,244.655C5.625,245.664 5.844,246.664 6.101,247.646C6.205,248.054 6.306,248.442 6.418,248.824C6.522,249.22 6.641,249.604 6.754,249.998C8.038,254.257 9.598,258.466 11.814,262.34C13.55,265.559 15.734,268.532 18.19,271.267C20.606,274 23.299,276.492 26.238,278.666C29.17,280.889 32.348,282.785 35.696,284.285C37.045,284.908 38.419,285.469 39.816,285.978C40.691,286.296 41.577,286.586 42.48,286.857C43.016,287.018 43.557,287.158 44.1,287.32L44.305,287.377L44.882,287.519L45.125,287.577L45.335,287.627L45.535,287.679L46.155,287.821L46.363,287.864L46.56,287.913L46.771,287.954L47.193,288.042L47.4,288.083L47.606,288.126L47.814,288.17L48.026,288.21L48.237,288.237L48.441,288.276L48.654,288.318L48.861,288.353L49.55,288.456L49.711,288.486L49.92,288.51L50.554,288.599L50.767,288.63L51.199,288.683L51.409,288.717L52.049,288.788L52.266,288.813L52.479,288.83L53.555,288.922L53.65,288.927L53.777,288.936L54.86,289.009L54.993,289.017L55.076,289.026C55.174,289.029 55.275,289.045 55.37,289.046C55.447,289.049 55.533,289.049 55.611,289.054C55.693,289.056 55.773,289.06 55.854,289.061C55.937,289.064 56.013,289.069 56.1,289.069C56.162,289.071 56.229,289.071 56.293,289.073L56.386,289.076C56.501,289.078 56.616,289.078 56.731,289.078C56.816,289.08 56.899,289.08 56.989,289.096C57.065,289.096 57.157,289.096 57.247,289.098L129.228,289.098C129.776,289.104 130.323,289.107 130.869,289.118C134.284,289.201 137.721,289.579 141.015,290.549C143.411,291.18 145.738,292.121 147.851,293.427C149.566,294.458 151.143,295.724 152.47,297.213C153.795,298.651 154.879,300.295 155.701,302.064C156.598,303.906 157.195,305.897 157.532,307.918C157.63,308.451 157.703,308.991 157.767,309.52C157.815,309.939 157.854,310.36 157.885,310.772C157.912,311.194 157.934,311.626 157.958,312.044C158.942,311.308 159.929,310.575 160.885,309.796C162.684,308.348 164.375,306.769 165.949,305.074C168.561,302.314 170.845,299.23 172.605,295.859C174.651,292.097 176.027,287.947 176.525,283.683C177.079,279.751 176.882,275.732 175.947,271.88C175.113,268.14 173.586,264.568 171.464,261.388C169.414,258.183 166.776,255.373 163.698,253.129C160.582,250.778 157,249.017 153.24,248.056C152.129,247.738 150.996,247.5 149.849,247.312C148.975,247.177 148.088,247.063 147.203,246.994C146.302,246.932 145.391,246.907 144.483,246.891L57.703,246.891C57.526,246.888 57.356,246.886 57.181,246.879C56.009,246.829 54.838,246.575 53.754,246.114C52.733,245.73 51.794,245.16 50.961,244.454C50.128,243.768 49.403,242.956 48.821,242.032C48.217,241.11 47.766,240.101 47.498,239.033C47.39,238.602 47.3,238.156 47.241,237.717C47.204,237.432 47.182,237.149 47.165,236.869C47.159,236.688 47.157,236.505 47.155,236.334C47.157,236.166 47.159,235.996 47.164,235.818C47.184,235.49 47.213,235.149 47.262,234.816C47.377,234.007 47.588,233.21 47.898,232.436C48.282,231.445 48.835,230.508 49.518,229.677C50.18,228.858 50.972,228.129 51.867,227.552C52.759,226.942 53.749,226.482 54.785,226.192C55.203,226.069 55.637,225.975 56.074,225.914C56.343,225.869 56.621,225.829 56.903,225.814C57.069,225.793 57.247,225.79 57.415,225.785L57.704,225.782L87.195,225.782C87.249,225.785 87.314,225.785 87.376,225.785C88.733,225.769 90.093,225.741 91.449,225.691C94.124,225.581 96.791,225.308 99.432,224.908C105.881,223.99 112.229,222.284 118.271,219.798C126.178,216.704 133.559,212.263 140.045,206.769C146.592,201.409 152.248,195.006 156.767,187.857C161.469,180.672 165.005,172.722 167.081,164.432C167.992,161.039 168.655,157.591 169.102,154.109C169.573,150.548 169.818,146.953 169.798,143.366C169.8,140.907 169.679,138.451 169.43,136.012C169.237,133.984 168.954,131.97 168.589,129.962C168.232,127.97 167.802,125.991 167.29,124.03C166.786,122.071 166.214,120.132 165.564,118.215C165.308,117.461 165.043,116.695 164.763,115.942C164.483,115.188 164.189,114.443 163.894,113.688C162.822,110.957 161.727,108.232 160.427,105.602C159.38,103.418 158.192,101.292 156.925,99.227C155.662,97.157 154.316,95.144 152.881,93.204C151.453,91.26 149.934,89.38 148.334,87.576C147.702,86.855 147.049,86.144 146.383,85.446C145.972,85.004 145.551,84.571 145.13,84.144C144.876,83.886 144.618,83.628 144.359,83.379C144.743,82.926 145.12,82.48 145.509,82.031C146.306,81.107 147.12,80.202 147.95,79.304C150.144,76.922 152.432,74.628 154.804,72.422C158.103,69.33 161.567,66.414 165.2,63.733C168.769,61.062 172.508,58.619 176.447,56.515C180.079,54.536 183.888,52.846 187.881,51.782C189.347,51.37 190.847,51.042 192.36,50.814C193.266,50.672 194.183,50.568 195.1,50.518C195.64,50.492 196.181,50.479 196.717,50.466C196.75,50.491 196.778,50.51 196.804,50.534C196.857,50.575 196.918,50.613 196.97,50.652C197.109,50.763 197.247,50.862 197.391,50.962C197.575,51.095 197.762,51.231 197.953,51.355C198.14,51.484 198.342,51.61 198.533,51.733C198.725,51.856 198.927,51.974 199.12,52.093C199.199,52.142 199.282,52.186 199.357,52.234C199.441,52.279 199.521,52.326 199.596,52.373C199.646,52.401 199.702,52.433 199.75,52.457C199.793,52.478 199.83,52.501 199.873,52.524C199.916,52.549 199.958,52.57 200.003,52.597C200.077,52.634 200.151,52.672 200.23,52.717C200.438,52.83 200.649,52.931 200.858,53.04C201.038,53.128 201.211,53.209 201.391,53.3C201.566,53.383 201.746,53.464 201.928,53.541C202.111,53.628 202.298,53.697 202.475,53.775C202.558,53.8 202.627,53.837 202.702,53.862C202.775,53.887 202.848,53.917 202.931,53.945C203.055,53.994 203.189,54.044 203.328,54.086C203.434,54.124 203.547,54.157 203.664,54.189C203.775,54.226 203.891,54.26 203.995,54.289C204.113,54.327 204.223,54.352 204.339,54.388C204.387,54.4 204.431,54.411 204.473,54.425C204.521,54.44 204.567,54.45 204.607,54.469C204.78,54.518 204.947,54.567 205.116,54.614C205.253,54.655 205.39,54.7 205.533,54.739C205.67,54.778 205.812,54.816 205.95,54.849C206.089,54.891 206.232,54.922 206.375,54.96C206.428,54.969 206.49,54.984 206.543,54.994C206.605,55.007 206.661,55.019 206.72,55.029C207.05,55.094 207.384,55.152 207.723,55.201C207.996,55.247 208.287,55.281 208.57,55.316C208.854,55.353 209.134,55.378 209.42,55.4C209.707,55.424 210,55.437 210.285,55.449C210.403,55.451 210.518,55.453 210.632,55.457L210.984,55.457C211.364,55.457 211.75,55.457 212.135,55.442C212.884,55.417 213.637,55.353 214.388,55.242C216.209,54.993 218.009,54.521 219.711,53.825C221.953,52.95 224.04,51.7 225.871,50.137C227.72,48.622 229.315,46.803 230.596,44.771C231.924,42.736 232.92,40.48 233.511,38.13C233.765,37.168 233.958,36.185 234.082,35.204C234.212,34.199 234.277,33.183 234.274,32.167C234.293,29.194 233.746,26.181 232.583,23.437C231.718,21.188 230.451,19.112 228.892,17.281" style="fill:white;fill-rule:nonzero;"/>
        </g>
        <path d="M461.869,25.463C455.742,25.463 450.779,30.426 450.779,36.552C450.779,42.678 455.742,47.642 461.869,47.642C467.994,47.642 472.959,42.679 472.959,36.552C472.959,30.426 467.997,25.463 461.869,25.463" style="fill:white;fill-rule:nonzero;"/>
        <path d="M461.869,51.068C453.874,51.068 447.351,44.55 447.351,36.551C447.351,28.553 453.873,22.033 461.869,22.033C469.869,22.033 476.386,28.554 476.386,36.551C476.388,44.55 469.869,51.068 461.869,51.068M489.293,17.023L478.817,17.023C473.364,10.91 471.65,8.874 469.563,8.874L454.534,8.874C452.445,8.874 450.763,10.911 445.28,17.023L443.023,17.023L443.023,14.306L437.252,14.306L437.252,17.023L434.961,17.023C431.972,17.023 429.273,19.266 429.273,22.238L429.273,52.122C429.273,55.093 431.972,57.777 434.961,57.777L489.294,57.777C492.28,57.777 494.476,55.094 494.476,52.122L494.476,22.238C494.475,19.266 492.279,17.023 489.293,17.023" style="fill:white;fill-rule:nonzero;"/>
    </g>
</svg>
